<svg xmlns="http://www.w3.org/2000/svg" version="1.1" xmlns:xlink="http://www.w3.org/1999/xlink" xmlns:svgjs="http://svgjs.dev/svgjs" width="1000" height="1000"><style>
    #light-icon {
      display: inline;
    }
    #dark-icon {
      display: none;
    }

    @media (prefers-color-scheme: dark) {
      #light-icon {
        display: none;
      }
      #dark-icon {
        display: inline;
      }
    }
  </style><g id="light-icon"><svg xmlns="http://www.w3.org/2000/svg" version="1.1" xmlns:xlink="http://www.w3.org/1999/xlink" xmlns:svgjs="http://svgjs.dev/svgjs" width="1000" height="1000"><g><g transform="matrix(4.166666666666667,0,0,4.166666666666667,77.08333333333331,-5.684341886080802e-14)"><svg xmlns="http://www.w3.org/2000/svg" version="1.1" xmlns:xlink="http://www.w3.org/1999/xlink" xmlns:svgjs="http://svgjs.dev/svgjs" width="203" height="240"><svg width="203" height="240" viewBox="0 0 203 240" fill="none" xmlns="http://www.w3.org/2000/svg">
<path d="M77 190C67.4 190 58.4 188.2 50 184.6C41.6 181 34.2 176 27.8 169.6C21.5333 163.067 16.6 155.6 13 147.2C9.4 138.667 7.6 129.6 7.6 120C7.6 110.533 9.33333 101.6 12.8 93.2C16.4 84.6667 21.3333 77.2 27.6 70.8C34 64.2667 41.4 59.2 49.8 55.6C58.2 51.8667 67.2667 50 77 50C87 50 96.3333 52 105 56C113.667 60 121.2 65.4667 127.6 72.4C134.133 79.2 139 87.2 142.2 96.4H114.8C111.067 88.9333 105.733 83.2667 98.8 79.4C91.8667 75.5333 84.3333 73.6 76.2 73.6C70.7333 73.6 65.4 74.7333 60.2 77C55 79.2667 50.3333 82.5333 46.2 86.8C42.0667 90.9333 38.7333 95.8667 36.2 101.6C33.8 107.2 32.6 113.333 32.6 120C32.6 126.4 33.7333 132.467 36 138.2C38.4 143.8 41.6 148.733 45.6 153C49.6 157.133 54.2667 160.467 59.6 163C65.0667 165.4 70.8667 166.6 77 166.6C85.1333 166.6 92.6 164.467 99.4 160.2C106.333 155.8 111.533 150.2 115 143.4H142.4C139.2 152.467 134.333 160.533 127.8 167.6C121.4 174.533 113.8 180 105 184C96.3333 188 87 190 77 190Z" fill="#173957"></path>
<path d="M130 190C120.4 190 111.4 188.2 103 184.6C94.6 181 87.2 176 80.8 169.6C74.5333 163.067 69.6 155.6 66 147.2C62.4 138.667 60.6 129.6 60.6 120C60.6 110.533 62.3333 101.6 65.8 93.2C69.4 84.6667 74.3333 77.2 80.6 70.8C87 64.2667 94.4 59.2 102.8 55.6C111.2 51.8667 120.267 50 130 50C140 50 149.333 52 158 56C166.667 60 174.2 65.4667 180.6 72.4C187.133 79.2 192 87.2 195.2 96.4H167.8C164.067 88.9333 158.733 83.2667 151.8 79.4C144.867 75.5333 137.333 73.6 129.2 73.6C123.733 73.6 118.4 74.7333 113.2 77C108 79.2667 103.333 82.5333 99.2 86.8C95.0667 90.9333 91.7333 95.8667 89.2 101.6C86.8 107.2 85.6 113.333 85.6 120C85.6 126.4 86.7333 132.467 89 138.2C91.4 143.8 94.6 148.733 98.6 153C102.6 157.133 107.267 160.467 112.6 163C118.067 165.4 123.867 166.6 130 166.6C138.133 166.6 145.6 164.467 152.4 160.2C159.333 155.8 164.533 150.2 168 143.4H195.4C192.2 152.467 187.333 160.533 180.8 167.6C174.4 174.533 166.8 180 158 184C149.333 188 140 190 130 190Z" fill="#0059A9"></path>
</svg></svg></g></g></svg></g><g id="dark-icon"><svg xmlns="http://www.w3.org/2000/svg" version="1.1" xmlns:xlink="http://www.w3.org/1999/xlink" xmlns:svgjs="http://svgjs.dev/svgjs" width="1000" height="1000"><g clip-path="url(#SvgjsClipPath1609)"><rect width="1000" height="1000" fill="#ffffff"></rect><g transform="matrix(2.9166666666666665,0,0,2.9166666666666665,203.95833333333337,150)"><svg xmlns="http://www.w3.org/2000/svg" version="1.1" xmlns:xlink="http://www.w3.org/1999/xlink" xmlns:svgjs="http://svgjs.dev/svgjs" width="203" height="240"><svg width="203" height="240" viewBox="0 0 203 240" fill="none" xmlns="http://www.w3.org/2000/svg">
<path d="M77 190C67.4 190 58.4 188.2 50 184.6C41.6 181 34.2 176 27.8 169.6C21.5333 163.067 16.6 155.6 13 147.2C9.4 138.667 7.6 129.6 7.6 120C7.6 110.533 9.33333 101.6 12.8 93.2C16.4 84.6667 21.3333 77.2 27.6 70.8C34 64.2667 41.4 59.2 49.8 55.6C58.2 51.8667 67.2667 50 77 50C87 50 96.3333 52 105 56C113.667 60 121.2 65.4667 127.6 72.4C134.133 79.2 139 87.2 142.2 96.4H114.8C111.067 88.9333 105.733 83.2667 98.8 79.4C91.8667 75.5333 84.3333 73.6 76.2 73.6C70.7333 73.6 65.4 74.7333 60.2 77C55 79.2667 50.3333 82.5333 46.2 86.8C42.0667 90.9333 38.7333 95.8667 36.2 101.6C33.8 107.2 32.6 113.333 32.6 120C32.6 126.4 33.7333 132.467 36 138.2C38.4 143.8 41.6 148.733 45.6 153C49.6 157.133 54.2667 160.467 59.6 163C65.0667 165.4 70.8667 166.6 77 166.6C85.1333 166.6 92.6 164.467 99.4 160.2C106.333 155.8 111.533 150.2 115 143.4H142.4C139.2 152.467 134.333 160.533 127.8 167.6C121.4 174.533 113.8 180 105 184C96.3333 188 87 190 77 190Z" fill="#173957"></path>
<path d="M130 190C120.4 190 111.4 188.2 103 184.6C94.6 181 87.2 176 80.8 169.6C74.5333 163.067 69.6 155.6 66 147.2C62.4 138.667 60.6 129.6 60.6 120C60.6 110.533 62.3333 101.6 65.8 93.2C69.4 84.6667 74.3333 77.2 80.6 70.8C87 64.2667 94.4 59.2 102.8 55.6C111.2 51.8667 120.267 50 130 50C140 50 149.333 52 158 56C166.667 60 174.2 65.4667 180.6 72.4C187.133 79.2 192 87.2 195.2 96.4H167.8C164.067 88.9333 158.733 83.2667 151.8 79.4C144.867 75.5333 137.333 73.6 129.2 73.6C123.733 73.6 118.4 74.7333 113.2 77C108 79.2667 103.333 82.5333 99.2 86.8C95.0667 90.9333 91.7333 95.8667 89.2 101.6C86.8 107.2 85.6 113.333 85.6 120C85.6 126.4 86.7333 132.467 89 138.2C91.4 143.8 94.6 148.733 98.6 153C102.6 157.133 107.267 160.467 112.6 163C118.067 165.4 123.867 166.6 130 166.6C138.133 166.6 145.6 164.467 152.4 160.2C159.333 155.8 164.533 150.2 168 143.4H195.4C192.2 152.467 187.333 160.533 180.8 167.6C174.4 174.533 166.8 180 158 184C149.333 188 140 190 130 190Z" fill="#0059A9"></path>
</svg></svg></g></g><defs><clipPath id="SvgjsClipPath1609"><rect width="1000" height="1000" x="0" y="0" rx="500" ry="500"></rect></clipPath></defs></svg></g></svg>